<svg width="1584" height="396" viewBox="0 0 1584 396" fill="none" xmlns="http://www.w3.org/2000/svg">
<rect width="1584" height="396" fill="#14141A"/>
<path d="M1348.26 370.96C1386.07 370.96 1416.72 340.295 1416.72 302.468C1416.72 264.641 1386.07 233.976 1348.26 233.976C1310.45 233.976 1279.8 264.641 1279.8 302.468C1279.8 340.295 1310.45 370.96 1348.26 370.96Z" fill="#F5F7FA"/>
<path d="M1068.27 26.2357V26.2884C1066.84 25.479 1065.24 25.0491 1063.6 25.04H1040.67C945.209 25.04 867.785 102.496 867.785 198C867.785 293.504 945.209 370.96 1040.67 370.96H1056.46H1216.74L1222.62 111.783L1068.27 26.2357Z" fill="#6DA297"/>
<path d="M1226.7 159.836V118.378C1226.7 117.418 1226.51 116.468 1226.14 115.581C1225.77 114.694 1225.24 113.888 1224.56 113.21C1223.88 112.531 1223.07 111.993 1222.19 111.625C1221.3 111.258 1220.35 111.069 1219.39 111.069H1217.14C1188.9 111.082 1161.45 120.294 1138.91 137.311C1116.38 154.328 1100 178.225 1092.26 205.385L1043.93 221.756L1111.25 316.267H1111.29C1123.29 333.186 1139.16 346.981 1157.58 356.498C1176 366.014 1196.43 370.973 1217.17 370.96H1219.42C1221.36 370.958 1223.21 370.187 1224.58 368.817C1225.95 367.446 1226.72 365.588 1226.72 363.651V276.795L1226.7 159.836Z" fill="#385744"/>
<path d="M1489.38 370.96C1527.19 370.96 1557.84 340.295 1557.84 302.468C1557.84 264.641 1527.19 233.976 1489.38 233.976C1451.57 233.976 1420.92 264.641 1420.92 302.468C1420.92 340.295 1451.57 370.96 1489.38 370.96Z" fill="#6DA297"/>
<path d="M1004.59 302.468C1004.59 287.941 999.962 273.792 991.389 262.068C982.815 250.343 970.737 241.65 956.9 237.244C943.063 232.839 928.184 232.95 914.415 237.562C900.645 242.173 888.698 251.046 880.301 262.898C889.029 284.382 901.974 303.898 918.371 320.291C934.768 336.685 954.284 349.623 975.765 358.342C984.684 352.012 991.957 343.635 996.972 333.913C1001.99 324.191 1004.6 313.408 1004.59 302.468V302.468Z" fill="#F5F7FA"/>
<path d="M1489.38 113.844C1499 113.844 1506.79 106.046 1506.79 96.4273C1506.79 86.8085 1499 79.011 1489.38 79.011C1479.77 79.011 1471.97 86.8085 1471.97 96.4273C1471.97 106.046 1479.77 113.844 1489.38 113.844Z" fill="#F5F7FA"/>
<path d="M1489.38 76.8453C1499 76.8453 1506.79 69.0478 1506.79 59.429C1506.79 49.8103 1499 42.0127 1489.38 42.0127C1479.77 42.0127 1471.97 49.8103 1471.97 59.429C1471.97 69.0478 1479.77 76.8453 1489.38 76.8453Z" fill="#95C9D0"/>
<path d="M1489.33 232.502C1495.95 232.51 1502.43 230.55 1507.94 226.872C1513.44 223.194 1517.74 217.963 1520.27 211.842C1522.8 205.72 1523.46 198.985 1522.16 192.488C1520.87 185.992 1517.67 180.027 1512.98 175.35C1509.76 172.131 1505.77 170.033 1501.58 167.89L1235.92 28.3864C1232.26 26.1968 1228.09 25.0401 1223.83 25.04H1063.77C1057.5 25.04 1051.48 27.5334 1047.05 31.9715C1042.61 36.4096 1040.12 42.429 1040.12 48.7055V208.829C1040.12 211.937 1040.73 215.015 1041.92 217.888C1043.1 220.76 1044.85 223.369 1047.04 225.568C1049.24 227.766 1051.85 229.51 1054.72 230.7C1057.59 231.889 1060.67 232.502 1063.77 232.502H1489.33Z" fill="#95C9D0"/>
<path d="M1489.38 232.494C1507.88 232.494 1522.88 217.492 1522.88 198.985C1522.88 180.479 1507.88 165.476 1489.38 165.476C1470.88 165.476 1455.89 180.479 1455.89 198.985C1455.89 217.492 1470.88 232.494 1489.38 232.494Z" fill="#385744"/>
<path d="M112.688 192.272C107.984 192.272 103.76 191.552 100.016 190.112C96.32 188.672 93.152 186.632 90.512 183.992C87.92 181.352 85.928 178.184 84.536 174.488C83.192 170.792 82.52 166.688 82.52 162.176C82.52 157.712 83.24 153.632 84.68 149.936C86.168 146.192 88.232 142.976 90.872 140.288C93.56 137.6 96.728 135.536 100.376 134.096C104.072 132.608 108.128 131.864 112.544 131.864C116.72 131.864 120.536 132.512 123.992 133.808C127.448 135.056 130.448 136.88 132.992 139.28C135.584 141.632 137.576 144.44 138.968 147.704C140.36 150.968 141.056 154.616 141.056 158.648C141.056 162.488 140.456 165.824 139.256 168.656C138.056 171.488 136.424 173.696 134.36 175.28C132.296 176.816 129.968 177.584 127.376 177.584C125.888 177.584 124.544 177.344 123.344 176.864C122.192 176.384 121.232 175.712 120.464 174.848C119.696 173.936 119.144 172.904 118.808 171.752H118.232C117.608 173.384 116.576 174.704 115.136 175.712C113.696 176.72 111.944 177.224 109.88 177.224C107.672 177.224 105.728 176.696 104.048 175.64C102.416 174.536 101.144 172.976 100.232 170.96C99.32 168.896 98.864 166.448 98.864 163.616C98.864 160.304 99.368 157.496 100.376 155.192C101.432 152.84 102.872 151.064 104.696 149.864C106.568 148.616 108.728 147.992 111.176 147.992C112.856 147.992 114.344 148.424 115.64 149.288C116.984 150.152 117.944 151.28 118.52 152.672H118.952L119.816 148.712H124.568L123.416 163.544C123.272 165.368 123.344 166.832 123.632 167.936C123.92 169.04 124.376 169.832 125 170.312C125.624 170.792 126.392 171.032 127.304 171.032C128.696 171.032 129.872 170.552 130.832 169.592C131.84 168.584 132.608 167.192 133.136 165.416C133.664 163.64 133.928 161.552 133.928 159.152C133.928 154.64 132.992 150.848 131.12 147.776C129.296 144.704 126.776 142.4 123.56 140.864C120.392 139.28 116.792 138.488 112.76 138.488C109.064 138.488 105.8 139.088 102.968 140.288C100.136 141.44 97.76 143.096 95.84 145.256C93.968 147.368 92.528 149.84 91.52 152.672C90.56 155.456 90.08 158.504 90.08 161.816C90.08 165.656 90.608 169.064 91.664 172.04C92.768 174.968 94.328 177.44 96.344 179.456C98.36 181.472 100.784 183.008 103.616 184.064C106.496 185.12 109.688 185.648 113.192 185.648C116.36 185.648 119.192 185.24 121.688 184.424C124.184 183.608 126.296 182.504 128.024 181.112L130.76 186.584C129.56 187.64 128 188.6 126.08 189.464C124.16 190.328 122.048 191 119.744 191.48C117.44 192.008 115.088 192.272 112.688 192.272ZM111.104 170.96C112.4 170.96 113.48 170.6 114.344 169.88C115.256 169.16 115.952 168.152 116.432 166.856C116.96 165.56 117.272 164.024 117.368 162.248C117.272 160.424 116.984 158.912 116.504 157.712C116.072 156.512 115.448 155.624 114.632 155.048C113.864 154.472 112.928 154.184 111.824 154.184C110.48 154.184 109.352 154.592 108.44 155.408C107.576 156.176 106.928 157.232 106.496 158.576C106.064 159.92 105.848 161.48 105.848 163.256C105.848 164.936 106.064 166.352 106.496 167.504C106.928 168.608 107.528 169.472 108.296 170.096C109.112 170.672 110.048 170.96 111.104 170.96ZM158.537 185.648C154.745 185.648 151.673 184.664 149.321 182.696C147.017 180.68 145.865 178.016 145.865 174.704C145.865 172.592 146.249 170.768 147.017 169.232C147.833 167.648 148.937 166.376 150.329 165.416C151.721 164.408 153.353 163.664 155.225 163.184C157.145 162.704 159.209 162.464 161.417 162.464H170.417V159.656C170.417 158.456 170.177 157.448 169.697 156.632C169.265 155.768 168.569 155.096 167.609 154.616C166.649 154.136 165.401 153.896 163.865 153.896C162.377 153.896 161.105 154.112 160.049 154.544C159.041 154.976 158.273 155.576 157.745 156.344C157.265 157.112 157.025 158 157.025 159.008H147.233C147.233 154.976 148.745 151.76 151.769 149.36C154.841 146.912 159.113 145.688 164.585 145.688C167.177 145.688 169.481 145.976 171.497 146.552C173.513 147.128 175.217 148.016 176.609 149.216C178.049 150.368 179.129 151.856 179.849 153.68C180.617 155.504 181.001 157.64 181.001 160.088V176C181.001 176.816 181.121 177.392 181.361 177.728C181.649 178.064 182.081 178.232 182.657 178.232C182.945 178.232 183.257 178.184 183.593 178.088C183.929 177.992 184.241 177.848 184.529 177.656V184.064C183.809 184.64 182.873 185.048 181.721 185.288C180.569 185.528 179.513 185.648 178.553 185.648C177.305 185.648 176.201 185.504 175.241 185.216C174.281 184.928 173.489 184.52 172.865 183.992C172.241 183.416 171.761 182.744 171.425 181.976C171.137 181.16 170.993 180.224 170.993 179.168C170.993 178.88 170.993 178.592 170.993 178.304C170.993 177.968 170.993 177.656 170.993 177.368L172.289 178.952H170.561C169.889 180.968 168.449 182.6 166.241 183.848C164.033 185.048 161.465 185.648 158.537 185.648ZM162.713 177.8C165.065 177.8 166.937 177.224 168.329 176.072C169.769 174.92 170.489 173.312 170.489 171.248V168.368H163.433C161.897 168.368 160.601 168.56 159.545 168.944C158.537 169.28 157.769 169.808 157.241 170.528C156.713 171.248 156.449 172.136 156.449 173.192C156.449 174.68 156.977 175.832 158.033 176.648C159.137 177.416 160.697 177.8 162.713 177.8ZM206.572 185.648C203.692 185.648 201.076 185.192 198.724 184.28C196.372 183.32 194.332 181.952 192.604 180.176C190.924 178.4 189.628 176.288 188.716 173.84C187.852 171.392 187.42 168.68 187.42 165.704C187.42 161.624 188.212 158.096 189.796 155.12C191.38 152.144 193.636 149.84 196.564 148.208C199.492 146.528 202.948 145.688 206.932 145.688C210.244 145.688 213.172 146.312 215.716 147.56C218.308 148.808 220.372 150.536 221.908 152.744C223.444 154.952 224.284 157.52 224.428 160.448H214.06C213.868 159.104 213.412 157.976 212.692 157.064C212.02 156.152 211.156 155.48 210.1 155.048C209.092 154.568 207.94 154.328 206.644 154.328C204.82 154.328 203.26 154.808 201.964 155.768C200.668 156.68 199.708 158 199.084 159.728C198.46 161.408 198.148 163.4 198.148 165.704C198.148 168.248 198.484 170.36 199.156 172.04C199.876 173.672 200.86 174.92 202.108 175.784C203.404 176.6 204.892 177.008 206.572 177.008C208.108 177.008 209.404 176.744 210.46 176.216C211.564 175.688 212.428 174.944 213.052 173.984C213.724 173.024 214.108 171.944 214.204 170.744H224.5C224.356 173.768 223.492 176.408 221.908 178.664C220.372 180.872 218.284 182.6 215.644 183.848C213.004 185.048 209.98 185.648 206.572 185.648ZM243.741 185C241.149 185 239.133 184.616 237.693 183.848C236.253 183.08 235.245 182 234.669 180.608C234.141 179.168 233.877 177.488 233.877 175.568V154.904H226.965V146.408H233.877V135.896L244.389 134.888V146.408H252.165V154.904H244.389V173.552C244.389 174.704 244.653 175.472 245.181 175.856C245.709 176.24 246.477 176.432 247.485 176.432H252.165V185H243.741ZM258.7 185V146.408H269.284V185H258.7ZM258.7 141.44V132.512H269.284V141.44H258.7ZM295.452 185.648C292.524 185.648 289.884 185.216 287.532 184.352C285.18 183.44 283.14 182.12 281.412 180.392C279.684 178.664 278.364 176.576 277.452 174.128C276.54 171.632 276.084 168.824 276.084 165.704C276.084 161.72 276.852 158.24 278.388 155.264C279.924 152.24 282.132 149.888 285.012 148.208C287.892 146.528 291.372 145.688 295.452 145.688C298.332 145.688 300.948 146.144 303.3 147.056C305.652 147.968 307.668 149.288 309.348 151.016C311.076 152.744 312.396 154.832 313.308 157.28C314.268 159.728 314.748 162.536 314.748 165.704C314.748 169.64 313.98 173.12 312.444 176.144C310.908 179.12 308.7 181.448 305.82 183.128C302.988 184.808 299.532 185.648 295.452 185.648ZM295.38 177.08C297.108 177.08 298.62 176.672 299.916 175.856C301.26 174.992 302.268 173.72 302.94 172.04C303.66 170.36 304.02 168.248 304.02 165.704C304.02 163.784 303.828 162.128 303.444 160.736C303.06 159.296 302.484 158.096 301.716 157.136C300.948 156.176 300.036 155.48 298.98 155.048C297.924 154.568 296.748 154.328 295.452 154.328C293.724 154.328 292.188 154.736 290.844 155.552C289.548 156.368 288.54 157.616 287.82 159.296C287.1 160.976 286.74 163.112 286.74 165.704C286.74 167.624 286.932 169.304 287.316 170.744C287.748 172.136 288.348 173.312 289.116 174.272C289.884 175.184 290.796 175.88 291.852 176.36C292.908 176.84 294.084 177.08 295.38 177.08ZM321.489 185V146.408H331.641L332.073 153.392H332.505C333.561 150.8 335.193 148.88 337.401 147.632C339.609 146.336 342.081 145.688 344.817 145.688C346.737 145.688 348.513 146 350.145 146.624C351.825 147.2 353.265 148.112 354.465 149.36C355.713 150.608 356.673 152.264 357.345 154.328C358.065 156.344 358.425 158.792 358.425 161.672V185H347.841V163.976C347.841 161.816 347.577 160.016 347.049 158.576C346.569 157.136 345.801 156.08 344.745 155.408C343.689 154.688 342.297 154.328 340.569 154.328C338.745 154.328 337.209 154.76 335.961 155.624C334.713 156.488 333.753 157.616 333.081 159.008C332.409 160.4 332.073 161.912 332.073 163.544V185H321.489ZM381.738 185.72C378.234 185.72 375.21 185.192 372.666 184.136C370.17 183.032 368.226 181.52 366.834 179.6C365.49 177.632 364.818 175.352 364.818 172.76H375.186C375.234 174.68 375.882 176.072 377.13 176.936C378.426 177.8 380.058 178.232 382.026 178.232C383.994 178.232 385.458 177.872 386.418 177.152C387.426 176.432 387.93 175.448 387.93 174.2C387.93 173.192 387.69 172.424 387.21 171.896C386.73 171.32 385.938 170.888 384.834 170.6C383.778 170.264 382.338 169.976 380.514 169.736C377.202 169.208 374.442 168.512 372.234 167.648C370.074 166.784 368.442 165.584 367.338 164.048C366.282 162.512 365.754 160.496 365.754 158C365.754 155.504 366.426 153.344 367.77 151.52C369.162 149.696 371.082 148.28 373.53 147.272C375.978 146.216 378.834 145.688 382.098 145.688C385.218 145.688 387.954 146.192 390.306 147.2C392.658 148.208 394.506 149.624 395.85 151.448C397.194 153.272 397.89 155.432 397.938 157.928H387.498C387.498 156.824 387.258 155.912 386.778 155.192C386.346 154.472 385.698 153.944 384.834 153.608C383.97 153.272 382.962 153.104 381.81 153.104C380.13 153.104 378.786 153.464 377.778 154.184C376.818 154.856 376.338 155.816 376.338 157.064C376.338 157.976 376.602 158.72 377.13 159.296C377.706 159.824 378.618 160.256 379.866 160.592C381.162 160.928 382.794 161.24 384.762 161.528C387.162 161.864 389.226 162.32 390.954 162.896C392.682 163.424 394.122 164.144 395.274 165.056C396.426 165.968 397.29 167.096 397.866 168.44C398.442 169.784 398.73 171.392 398.73 173.264C398.73 177.248 397.17 180.32 394.05 182.48C390.93 184.64 386.826 185.72 381.738 185.72Z" fill="#95C9D0"/>
<path d="M435.527 185.72C432.023 185.72 428.999 185.192 426.455 184.136C423.959 183.032 422.015 181.52 420.623 179.6C419.279 177.632 418.607 175.352 418.607 172.76H428.975C429.023 174.68 429.671 176.072 430.919 176.936C432.215 177.8 433.847 178.232 435.815 178.232C437.783 178.232 439.247 177.872 440.207 177.152C441.215 176.432 441.719 175.448 441.719 174.2C441.719 173.192 441.479 172.424 440.999 171.896C440.519 171.32 439.727 170.888 438.623 170.6C437.567 170.264 436.127 169.976 434.303 169.736C430.991 169.208 428.231 168.512 426.023 167.648C423.863 166.784 422.231 165.584 421.127 164.048C420.071 162.512 419.543 160.496 419.543 158C419.543 155.504 420.215 153.344 421.559 151.52C422.951 149.696 424.871 148.28 427.319 147.272C429.767 146.216 432.623 145.688 435.887 145.688C439.007 145.688 441.743 146.192 444.095 147.2C446.447 148.208 448.295 149.624 449.639 151.448C450.983 153.272 451.679 155.432 451.727 157.928H441.287C441.287 156.824 441.047 155.912 440.567 155.192C440.135 154.472 439.487 153.944 438.623 153.608C437.759 153.272 436.751 153.104 435.599 153.104C433.919 153.104 432.575 153.464 431.567 154.184C430.607 154.856 430.127 155.816 430.127 157.064C430.127 157.976 430.391 158.72 430.919 159.296C431.495 159.824 432.407 160.256 433.655 160.592C434.951 160.928 436.583 161.24 438.551 161.528C440.951 161.864 443.015 162.32 444.743 162.896C446.471 163.424 447.911 164.144 449.063 165.056C450.215 165.968 451.079 167.096 451.655 168.44C452.231 169.784 452.519 171.392 452.519 173.264C452.519 177.248 450.959 180.32 447.839 182.48C444.719 184.64 440.615 185.72 435.527 185.72ZM459.372 197.024V146.408H469.596L469.956 153.104H470.532C471.444 150.896 472.956 149.12 475.068 147.776C477.228 146.384 479.796 145.688 482.772 145.688C485.076 145.688 487.164 146.12 489.036 146.984C490.956 147.8 492.588 149.048 493.932 150.728C495.324 152.408 496.38 154.496 497.1 156.992C497.868 159.488 498.252 162.392 498.252 165.704C498.252 170.12 497.604 173.816 496.308 176.792C495.012 179.768 493.188 182 490.836 183.488C488.532 184.976 485.844 185.72 482.772 185.72C480.804 185.72 479.004 185.408 477.372 184.784C475.74 184.16 474.348 183.296 473.196 182.192C472.044 181.088 471.156 179.792 470.532 178.304H469.956V197.024H459.372ZM478.812 177.152C480.54 177.152 482.052 176.744 483.348 175.928C484.644 175.064 485.628 173.792 486.3 172.112C487.02 170.432 487.38 168.296 487.38 165.704C487.38 163.064 487.02 160.904 486.3 159.224C485.628 157.544 484.644 156.296 483.348 155.48C482.052 154.664 480.54 154.256 478.812 154.256C476.844 154.256 475.212 154.712 473.916 155.624C472.62 156.536 471.66 157.712 471.036 159.152C470.412 160.592 470.1 162.152 470.1 163.832V167.576C470.1 168.824 470.268 170.024 470.604 171.176C470.94 172.28 471.468 173.288 472.188 174.2C472.908 175.064 473.82 175.784 474.924 176.36C476.028 176.888 477.324 177.152 478.812 177.152ZM522.27 185.72C518.238 185.72 514.806 184.904 511.974 183.272C509.19 181.64 507.054 179.336 505.566 176.36C504.078 173.384 503.334 169.928 503.334 165.992C503.334 161.816 504.078 158.216 505.566 155.192C507.102 152.168 509.238 149.84 511.974 148.208C514.758 146.528 518.046 145.688 521.838 145.688C526.254 145.688 529.854 146.648 532.638 148.568C535.47 150.488 537.51 153.128 538.758 156.488C540.006 159.848 540.414 163.688 539.982 168.008H513.702C513.702 170.12 514.038 171.92 514.71 173.408C515.43 174.848 516.438 175.928 517.734 176.648C519.03 177.368 520.542 177.728 522.27 177.728C524.238 177.728 525.894 177.272 527.238 176.36C528.582 175.448 529.446 174.248 529.83 172.76H539.766C539.478 175.4 538.542 177.704 536.958 179.672C535.374 181.592 533.31 183.08 530.766 184.136C528.27 185.192 525.438 185.72 522.27 185.72ZM513.702 162.464L512.766 161.456H530.622L529.614 162.464C529.71 160.448 529.422 158.816 528.75 157.568C528.126 156.272 527.214 155.288 526.014 154.616C524.862 153.944 523.47 153.608 521.838 153.608C520.206 153.608 518.766 153.968 517.518 154.688C516.318 155.36 515.382 156.368 514.71 157.712C514.086 159.008 513.75 160.592 513.702 162.464ZM557.279 185.648C553.487 185.648 550.415 184.664 548.063 182.696C545.759 180.68 544.607 178.016 544.607 174.704C544.607 172.592 544.991 170.768 545.759 169.232C546.575 167.648 547.679 166.376 549.071 165.416C550.463 164.408 552.095 163.664 553.967 163.184C555.887 162.704 557.951 162.464 560.159 162.464H569.159V159.656C569.159 158.456 568.919 157.448 568.439 156.632C568.007 155.768 567.311 155.096 566.351 154.616C565.391 154.136 564.143 153.896 562.607 153.896C561.119 153.896 559.847 154.112 558.791 154.544C557.783 154.976 557.015 155.576 556.487 156.344C556.007 157.112 555.767 158 555.767 159.008H545.975C545.975 154.976 547.487 151.76 550.511 149.36C553.583 146.912 557.855 145.688 563.327 145.688C565.919 145.688 568.223 145.976 570.239 146.552C572.255 147.128 573.959 148.016 575.351 149.216C576.791 150.368 577.871 151.856 578.591 153.68C579.359 155.504 579.743 157.64 579.743 160.088V176C579.743 176.816 579.863 177.392 580.103 177.728C580.391 178.064 580.823 178.232 581.399 178.232C581.687 178.232 581.999 178.184 582.335 178.088C582.671 177.992 582.983 177.848 583.271 177.656V184.064C582.551 184.64 581.615 185.048 580.463 185.288C579.311 185.528 578.255 185.648 577.295 185.648C576.047 185.648 574.943 185.504 573.983 185.216C573.023 184.928 572.231 184.52 571.607 183.992C570.983 183.416 570.503 182.744 570.167 181.976C569.879 181.16 569.735 180.224 569.735 179.168C569.735 178.88 569.735 178.592 569.735 178.304C569.735 177.968 569.735 177.656 569.735 177.368L571.031 178.952H569.303C568.631 180.968 567.191 182.6 564.983 183.848C562.775 185.048 560.207 185.648 557.279 185.648ZM561.455 177.8C563.807 177.8 565.679 177.224 567.071 176.072C568.511 174.92 569.231 173.312 569.231 171.248V168.368H562.175C560.639 168.368 559.343 168.56 558.287 168.944C557.279 169.28 556.511 169.808 555.983 170.528C555.455 171.248 555.191 172.136 555.191 173.192C555.191 174.68 555.719 175.832 556.775 176.648C557.879 177.416 559.439 177.8 561.455 177.8ZM588.677 185V132.512H599.405V162.392L602.573 158.72L614.021 146.408H627.053L612.221 161.672L627.341 185H614.885L607.037 172.76L604.733 168.728L599.405 173.984V185H588.677ZM84.536 264V211.512H95.12V264H84.536ZM121.288 264.648C118.36 264.648 115.72 264.216 113.368 263.352C111.016 262.44 108.976 261.12 107.248 259.392C105.52 257.664 104.2 255.576 103.288 253.128C102.376 250.632 101.92 247.824 101.92 244.704C101.92 240.72 102.688 237.24 104.224 234.264C105.76 231.24 107.968 228.888 110.848 227.208C113.728 225.528 117.208 224.688 121.288 224.688C124.168 224.688 126.784 225.144 129.136 226.056C131.488 226.968 133.504 228.288 135.184 230.016C136.912 231.744 138.232 233.832 139.144 236.28C140.104 238.728 140.584 241.536 140.584 244.704C140.584 248.64 139.816 252.12 138.28 255.144C136.744 258.12 134.536 260.448 131.656 262.128C128.824 263.808 125.368 264.648 121.288 264.648ZM121.216 256.08C122.944 256.08 124.456 255.672 125.752 254.856C127.096 253.992 128.104 252.72 128.776 251.04C129.496 249.36 129.856 247.248 129.856 244.704C129.856 242.784 129.664 241.128 129.28 239.736C128.896 238.296 128.32 237.096 127.552 236.136C126.784 235.176 125.872 234.48 124.816 234.048C123.76 233.568 122.584 233.328 121.288 233.328C119.56 233.328 118.024 233.736 116.68 234.552C115.384 235.368 114.376 236.616 113.656 238.296C112.936 239.976 112.576 242.112 112.576 244.704C112.576 246.624 112.768 248.304 113.152 249.744C113.584 251.136 114.184 252.312 114.952 253.272C115.72 254.184 116.632 254.88 117.688 255.36C118.744 255.84 119.92 256.08 121.216 256.08ZM160.717 264.648C157.741 264.648 155.221 264.072 153.157 262.92C151.093 261.768 149.533 260.064 148.477 257.808C147.469 255.504 146.965 252.72 146.965 249.456V225.408H157.549V246.648C157.549 248.664 157.789 250.368 158.269 251.76C158.797 253.152 159.589 254.232 160.645 255C161.749 255.72 163.165 256.08 164.893 256.08C166.669 256.08 168.181 255.648 169.429 254.784C170.677 253.92 171.637 252.792 172.309 251.4C172.981 249.96 173.317 248.4 173.317 246.72V225.408H183.901V264H173.749L173.317 256.944H172.813C171.901 259.44 170.341 261.36 168.133 262.704C165.973 264 163.501 264.648 160.717 264.648ZM205.218 264.648C202.914 264.648 200.802 264.24 198.882 263.424C197.01 262.608 195.378 261.36 193.986 259.68C192.642 258 191.61 255.912 190.89 253.416C190.17 250.92 189.81 248.016 189.81 244.704C189.81 240.24 190.434 236.544 191.682 233.616C192.978 230.64 194.778 228.408 197.082 226.92C199.434 225.432 202.146 224.688 205.218 224.688C207.234 224.688 209.034 225 210.618 225.624C212.25 226.248 213.642 227.112 214.794 228.216C215.994 229.32 216.882 230.616 217.458 232.104H218.034V211.512H228.618V264H218.394L218.034 257.232H217.458C216.594 259.488 215.082 261.288 212.922 262.632C210.762 263.976 208.194 264.648 205.218 264.648ZM209.25 256.08C211.218 256.08 212.826 255.624 214.074 254.712C215.37 253.8 216.33 252.624 216.954 251.184C217.578 249.696 217.89 248.136 217.89 246.504V242.832C217.89 241.584 217.722 240.384 217.386 239.232C217.05 238.08 216.522 237.072 215.802 236.208C215.082 235.296 214.17 234.576 213.066 234.048C211.962 233.52 210.69 233.256 209.25 233.256C207.522 233.256 206.01 233.664 204.714 234.48C203.418 235.296 202.41 236.544 201.69 238.224C200.97 239.904 200.61 242.064 200.61 244.704C200.61 247.248 200.97 249.384 201.69 251.112C202.41 252.792 203.418 254.04 204.714 254.856C206.01 255.672 207.522 256.08 209.25 256.08ZM254.309 264.72C250.277 264.72 246.845 263.904 244.013 262.272C241.229 260.64 239.093 258.336 237.605 255.36C236.117 252.384 235.373 248.928 235.373 244.992C235.373 240.816 236.117 237.216 237.605 234.192C239.141 231.168 241.277 228.84 244.013 227.208C246.797 225.528 250.085 224.688 253.877 224.688C258.293 224.688 261.893 225.648 264.677 227.568C267.509 229.488 269.549 232.128 270.797 235.488C272.045 238.848 272.453 242.688 272.021 247.008H245.741C245.741 249.12 246.077 250.92 246.749 252.408C247.469 253.848 248.477 254.928 249.773 255.648C251.069 256.368 252.581 256.728 254.309 256.728C256.277 256.728 257.933 256.272 259.277 255.36C260.621 254.448 261.485 253.248 261.869 251.76H271.805C271.517 254.4 270.581 256.704 268.997 258.672C267.413 260.592 265.349 262.08 262.805 263.136C260.309 264.192 257.477 264.72 254.309 264.72ZM245.741 241.464L244.805 240.456H262.661L261.653 241.464C261.749 239.448 261.461 237.816 260.789 236.568C260.165 235.272 259.253 234.288 258.053 233.616C256.901 232.944 255.509 232.608 253.877 232.608C252.245 232.608 250.805 232.968 249.557 233.688C248.357 234.36 247.421 235.368 246.749 236.712C246.125 238.008 245.789 239.592 245.741 241.464ZM278.95 264V225.408H288.526L288.958 231.6H289.318C290.182 229.104 291.55 227.376 293.422 226.416C295.342 225.408 297.526 224.904 299.974 224.904C300.406 224.904 300.79 224.904 301.126 224.904C301.462 224.904 301.798 224.904 302.134 224.904V234.84C301.894 234.84 301.558 234.84 301.126 234.84C300.694 234.84 300.238 234.84 299.758 234.84C297.406 234.84 295.486 235.2 293.998 235.92C292.51 236.592 291.406 237.6 290.686 238.944C289.966 240.288 289.582 241.92 289.534 243.84V264H278.95ZM335.78 264C333.188 264 331.172 263.616 329.732 262.848C328.292 262.08 327.284 261 326.708 259.608C326.18 258.168 325.916 256.488 325.916 254.568V233.904H319.004V225.408H325.916V214.896L336.428 213.888V225.408H344.204V233.904H336.428V252.552C336.428 253.704 336.692 254.472 337.22 254.856C337.748 255.24 338.516 255.432 339.524 255.432H344.204V264H335.78ZM350.739 264V211.512H361.323V232.392H361.755C362.811 229.8 364.443 227.88 366.651 226.632C368.859 225.336 371.331 224.688 374.067 224.688C375.987 224.688 377.763 225 379.395 225.624C381.075 226.2 382.515 227.112 383.715 228.36C384.963 229.608 385.923 231.264 386.595 233.328C387.315 235.344 387.675 237.792 387.675 240.672V264H377.091V242.976C377.091 240.816 376.827 239.016 376.299 237.576C375.819 236.136 375.051 235.08 373.995 234.408C372.939 233.688 371.547 233.328 369.819 233.328C367.995 233.328 366.459 233.76 365.211 234.624C363.963 235.488 363.003 236.616 362.331 238.008C361.659 239.4 361.323 240.912 361.323 242.544V264H350.739ZM406.74 264.648C402.948 264.648 399.876 263.664 397.524 261.696C395.22 259.68 394.068 257.016 394.068 253.704C394.068 251.592 394.452 249.768 395.22 248.232C396.036 246.648 397.14 245.376 398.532 244.416C399.924 243.408 401.556 242.664 403.428 242.184C405.348 241.704 407.412 241.464 409.62 241.464H418.62V238.656C418.62 237.456 418.38 236.448 417.9 235.632C417.468 234.768 416.772 234.096 415.812 233.616C414.852 233.136 413.604 232.896 412.068 232.896C410.58 232.896 409.308 233.112 408.252 233.544C407.244 233.976 406.476 234.576 405.948 235.344C405.468 236.112 405.228 237 405.228 238.008H395.436C395.436 233.976 396.948 230.76 399.972 228.36C403.044 225.912 407.316 224.688 412.788 224.688C415.38 224.688 417.684 224.976 419.7 225.552C421.716 226.128 423.42 227.016 424.812 228.216C426.252 229.368 427.332 230.856 428.052 232.68C428.82 234.504 429.204 236.64 429.204 239.088V255C429.204 255.816 429.324 256.392 429.564 256.728C429.852 257.064 430.284 257.232 430.86 257.232C431.148 257.232 431.46 257.184 431.796 257.088C432.132 256.992 432.444 256.848 432.732 256.656V263.064C432.012 263.64 431.076 264.048 429.924 264.288C428.772 264.528 427.716 264.648 426.756 264.648C425.508 264.648 424.404 264.504 423.444 264.216C422.484 263.928 421.692 263.52 421.068 262.992C420.444 262.416 419.964 261.744 419.628 260.976C419.34 260.16 419.196 259.224 419.196 258.168C419.196 257.88 419.196 257.592 419.196 257.304C419.196 256.968 419.196 256.656 419.196 256.368L420.492 257.952H418.764C418.092 259.968 416.652 261.6 414.444 262.848C412.236 264.048 409.668 264.648 406.74 264.648ZM410.916 256.8C413.268 256.8 415.14 256.224 416.532 255.072C417.972 253.92 418.692 252.312 418.692 250.248V247.368H411.636C410.1 247.368 408.804 247.56 407.748 247.944C406.74 248.28 405.972 248.808 405.444 249.528C404.916 250.248 404.652 251.136 404.652 252.192C404.652 253.68 405.18 254.832 406.236 255.648C407.34 256.416 408.9 256.8 410.916 256.8ZM438.138 264V225.408H448.29L448.722 232.392H449.154C450.21 229.8 451.842 227.88 454.05 226.632C456.258 225.336 458.73 224.688 461.466 224.688C463.386 224.688 465.162 225 466.794 225.624C468.474 226.2 469.914 227.112 471.114 228.36C472.362 229.608 473.322 231.264 473.994 233.328C474.714 235.344 475.074 237.792 475.074 240.672V264H464.49V242.976C464.49 240.816 464.226 239.016 463.698 237.576C463.218 236.136 462.45 235.08 461.394 234.408C460.338 233.688 458.946 233.328 457.218 233.328C455.394 233.328 453.858 233.76 452.61 234.624C451.362 235.488 450.402 236.616 449.73 238.008C449.058 239.4 448.722 240.912 448.722 242.544V264H438.138ZM504.066 264L494.995 225.408H505.867L511.699 253.488H512.203L517.387 225.408H529.123L534.379 253.632H534.667L540.643 225.408H551.083L541.867 264H528.043L523.003 238.872H522.643L517.819 264H504.066ZM572.553 264.648C569.625 264.648 566.985 264.216 564.633 263.352C562.281 262.44 560.241 261.12 558.513 259.392C556.785 257.664 555.465 255.576 554.553 253.128C553.641 250.632 553.185 247.824 553.185 244.704C553.185 240.72 553.953 237.24 555.489 234.264C557.025 231.24 559.233 228.888 562.113 227.208C564.993 225.528 568.473 224.688 572.553 224.688C575.433 224.688 578.049 225.144 580.401 226.056C582.753 226.968 584.769 228.288 586.449 230.016C588.177 231.744 589.497 233.832 590.409 236.28C591.369 238.728 591.849 241.536 591.849 244.704C591.849 248.64 591.081 252.12 589.545 255.144C588.009 258.12 585.801 260.448 582.921 262.128C580.089 263.808 576.633 264.648 572.553 264.648ZM572.481 256.08C574.209 256.08 575.721 255.672 577.017 254.856C578.361 253.992 579.369 252.72 580.041 251.04C580.761 249.36 581.121 247.248 581.121 244.704C581.121 242.784 580.929 241.128 580.545 239.736C580.161 238.296 579.585 237.096 578.817 236.136C578.049 235.176 577.137 234.48 576.081 234.048C575.025 233.568 573.849 233.328 572.553 233.328C570.825 233.328 569.289 233.736 567.945 234.552C566.649 235.368 565.641 236.616 564.921 238.296C564.201 239.976 563.841 242.112 563.841 244.704C563.841 246.624 564.033 248.304 564.417 249.744C564.849 251.136 565.449 252.312 566.217 253.272C566.985 254.184 567.897 254.88 568.953 255.36C570.009 255.84 571.185 256.08 572.481 256.08ZM598.591 264V225.408H608.167L608.599 231.6H608.959C609.823 229.104 611.191 227.376 613.063 226.416C614.983 225.408 617.167 224.904 619.615 224.904C620.047 224.904 620.431 224.904 620.767 224.904C621.103 224.904 621.439 224.904 621.775 224.904V234.84C621.535 234.84 621.199 234.84 620.767 234.84C620.335 234.84 619.879 234.84 619.399 234.84C617.047 234.84 615.127 235.2 613.639 235.92C612.151 236.592 611.047 237.6 610.327 238.944C609.607 240.288 609.223 241.92 609.175 243.84V264H598.591ZM639.679 264.648C637.375 264.648 635.263 264.24 633.343 263.424C631.471 262.608 629.839 261.36 628.447 259.68C627.103 258 626.071 255.912 625.351 253.416C624.631 250.92 624.271 248.016 624.271 244.704C624.271 240.24 624.895 236.544 626.143 233.616C627.439 230.64 629.239 228.408 631.543 226.92C633.895 225.432 636.607 224.688 639.679 224.688C641.695 224.688 643.495 225 645.079 225.624C646.711 226.248 648.103 227.112 649.255 228.216C650.455 229.32 651.343 230.616 651.919 232.104H652.495V211.512H663.079V264H652.855L652.495 257.232H651.919C651.055 259.488 649.543 261.288 647.383 262.632C645.223 263.976 642.655 264.648 639.679 264.648ZM643.711 256.08C645.679 256.08 647.287 255.624 648.535 254.712C649.831 253.8 650.791 252.624 651.415 251.184C652.039 249.696 652.351 248.136 652.351 246.504V242.832C652.351 241.584 652.183 240.384 651.847 239.232C651.511 238.08 650.983 237.072 650.263 236.208C649.543 235.296 648.631 234.576 647.527 234.048C646.423 233.52 645.151 233.256 643.711 233.256C641.983 233.256 640.471 233.664 639.175 234.48C637.879 235.296 636.871 236.544 636.151 238.224C635.431 239.904 635.071 242.064 635.071 244.704C635.071 247.248 635.431 249.384 636.151 251.112C636.871 252.792 637.879 254.04 639.175 254.856C640.471 255.672 641.983 256.08 643.711 256.08ZM686.754 264.72C683.25 264.72 680.226 264.192 677.682 263.136C675.186 262.032 673.242 260.52 671.85 258.6C670.506 256.632 669.834 254.352 669.834 251.76H680.202C680.25 253.68 680.898 255.072 682.146 255.936C683.442 256.8 685.074 257.232 687.042 257.232C689.01 257.232 690.474 256.872 691.434 256.152C692.442 255.432 692.946 254.448 692.946 253.2C692.946 252.192 692.706 251.424 692.226 250.896C691.746 250.32 690.954 249.888 689.85 249.6C688.794 249.264 687.354 248.976 685.53 248.736C682.218 248.208 679.458 247.512 677.25 246.648C675.09 245.784 673.458 244.584 672.354 243.048C671.298 241.512 670.77 239.496 670.77 237C670.77 234.504 671.442 232.344 672.786 230.52C674.178 228.696 676.098 227.28 678.546 226.272C680.994 225.216 683.85 224.688 687.114 224.688C690.234 224.688 692.97 225.192 695.322 226.2C697.674 227.208 699.522 228.624 700.866 230.448C702.21 232.272 702.906 234.432 702.954 236.928H692.514C692.514 235.824 692.274 234.912 691.794 234.192C691.362 233.472 690.714 232.944 689.85 232.608C688.986 232.272 687.978 232.104 686.826 232.104C685.146 232.104 683.802 232.464 682.794 233.184C681.834 233.856 681.354 234.816 681.354 236.064C681.354 236.976 681.618 237.72 682.146 238.296C682.722 238.824 683.634 239.256 684.882 239.592C686.178 239.928 687.81 240.24 689.778 240.528C692.178 240.864 694.242 241.32 695.97 241.896C697.698 242.424 699.138 243.144 700.29 244.056C701.442 244.968 702.306 246.096 702.882 247.44C703.458 248.784 703.746 250.392 703.746 252.264C703.746 256.248 702.186 259.32 699.066 261.48C695.946 263.64 691.842 264.72 686.754 264.72Z" fill="#F5F7FA"/>
</svg>
